<svg width="351" height="217" viewBox="0 0 351 217" fill="none" xmlns="http://www.w3.org/2000/svg">
<path d="M198.92 172.017C212.741 168.271 298.869 44.4925 340.205 0V203.631H10.7949V0C54.0508 44.1022 144.018 167.334 157.839 172.017C175.116 177.872 181.643 176.701 198.92 172.017Z" fill="#FFFDE5"/>
<path d="M198.92 177.415C212.741 173.668 298.869 83.7464 340.205 39.2539V209.028H10.7949V39.2539C54.0508 83.3561 144.018 172.731 157.839 177.415C175.116 183.269 181.643 182.098 198.92 177.415Z" fill="#FFF8C0"/>
<path d="M200.455 190.383C215.182 187.242 306.955 111.874 351 74.583V216.879H0V74.583C46.0909 111.547 141.955 186.457 156.682 190.383C175.091 195.289 182.045 194.308 200.455 190.383Z" fill="#FFD400"/>
</svg>
