<svg width="238" height="106" viewBox="0 0 238 106" fill="none" xmlns="http://www.w3.org/2000/svg">
<path d="M50.0962 71.3215C46.159 73.1369 45.4378 74.6085 44.5481 82.6431C43.6584 74.6085 42.9372 73.1369 39 71.3215C42.9372 69.5062 43.6584 68.0345 44.5481 60C45.4378 68.0345 46.159 69.5062 50.0962 71.3215Z" fill="#FFFAC0"/>
<path d="M230.096 68.3215C226.159 70.1369 225.438 71.6085 224.548 79.6431C223.658 71.6085 222.937 70.1369 219 68.3215C222.937 66.5062 223.658 65.0345 224.548 57C225.438 65.0345 226.159 66.5062 230.096 68.3215Z" fill="#FFFAC0"/>
<path d="M161.663 49.6567C163.447 58.5933 171.986 64.4233 180.732 62.677L183.666 77.3687L69.9975 100.062L67.0643 85.3706C75.7465 83.5731 81.3346 74.947 79.5584 66.0504C77.7822 57.1538 69.3103 51.3347 60.6031 53.0073L57.6699 38.3156L171.338 15.6221L174.271 30.3121C165.524 32.0584 159.879 40.7201 161.663 49.6567Z" fill="#D48DD8"/>
<path d="M165.578 14.5557L168.243 27.9036C159.704 29.8833 154.268 38.4418 156.026 47.2479C157.784 56.0542 166.09 61.869 174.734 60.4182L177.399 73.768L67.4095 95.7271L64.7437 82.3744C73.2195 80.3476 78.6006 71.8243 76.8502 63.0571C75.0999 54.2898 66.8583 48.4859 58.2537 49.8675L55.5879 36.5148L165.578 14.5557Z" fill="#FFD4F7" stroke="#D48DD8"/>
<path d="M82.1883 30.6943L79.0527 31.3203L81.0475 41.3117L84.183 40.6857L82.1883 30.6943Z" fill="#3B1E1E"/>
<path d="M84.6941 43.2451L81.5586 43.8711L83.5533 53.8624L86.6889 53.2364L84.6941 43.2451Z" fill="#3B1E1E"/>
<path d="M87.2 55.7949L84.0645 56.4209L86.0592 66.4122L89.1947 65.7862L87.2 55.7949Z" fill="#3B1E1E"/>
<path d="M89.7058 68.3457L86.5703 68.9717L88.5651 78.963L91.7006 78.337L89.7058 68.3457Z" fill="#3B1E1E"/>
<path d="M92.2117 80.8965L89.0762 81.5225L91.0709 91.5138L94.2064 90.8878L92.2117 80.8965Z" fill="#3B1E1E"/>
<path d="M98.1879 50.5556L97.6934 48.0788L100.929 47.4327C101.61 47.2968 102.097 47.0219 102.391 46.608C102.699 46.1912 102.795 45.691 102.679 45.1074C102.571 44.5664 102.3 44.1542 101.867 43.8706C101.434 43.5869 100.877 43.5131 100.197 43.6489L96.9389 44.2993L96.4188 41.6943L100.068 40.9659C101.081 40.7635 102.01 40.7779 102.854 41.0091C103.695 41.226 104.4 41.6256 104.968 42.2079C105.536 42.7902 105.906 43.5156 106.08 44.3839C106.256 45.2665 106.194 46.0856 105.893 46.8414C105.589 47.5829 105.083 48.2168 104.376 48.743C103.668 49.2692 102.785 49.6378 101.728 49.8489L98.1879 50.5556ZM96.8222 57.2896L93.8125 42.2147L97.2224 41.5339L100.232 56.6088L96.8222 57.2896ZM105.162 55.6245L99.0881 50.0873L102.049 48.6301L109.202 54.818L105.162 55.6245Z" fill="#3B1E1E"/>
<path d="M110.693 54.5195L107.684 39.4446L110.116 38.959L118 46.9992L116.762 47.2464L120.932 36.7996L123.386 36.3096L126.396 51.3845L122.986 52.0653L121.106 42.6488L121.744 42.6769L119.015 49.4831L116.756 49.9341L111.645 44.6932L112.201 44.4266L114.081 53.8431L110.693 54.5195Z" fill="#3B1E1E"/>
<path d="M131.248 50.4164L128.238 35.3415L131.626 34.665L134.636 49.7399L131.248 50.4164ZM125.851 38.7711L125.285 35.9312L131.409 34.7084L131.976 37.5483L125.851 38.7711Z" fill="#3B1E1E"/>
<path d="M143.369 48.241C142.138 48.4867 140.958 48.3819 139.828 47.9265C138.698 47.4712 137.727 46.7177 136.915 45.666C136.115 44.5973 135.561 43.2942 135.254 41.7568C134.944 40.2052 134.956 38.7965 135.291 37.5307C135.623 36.2507 136.217 35.1921 137.073 34.355C137.927 33.5036 138.977 32.9536 140.222 32.705C141.482 32.4535 142.669 32.5569 143.785 33.0151C144.897 33.4591 145.852 34.2084 146.65 35.2629C147.462 36.3146 148.023 37.6162 148.333 39.1678C148.643 40.7194 148.624 42.1367 148.278 43.4196C147.947 44.6996 147.354 45.7653 146.5 46.6167C145.658 47.4509 144.614 47.9924 143.369 48.241ZM142.755 45.2773C143.392 45.1501 143.906 44.8623 144.299 44.414C144.688 43.9513 144.935 43.3396 145.039 42.5787C145.155 41.8007 145.109 40.8921 144.901 39.8529C144.691 38.7995 144.384 37.943 143.982 37.2833C143.593 36.6207 143.132 36.1577 142.598 35.8943C142.061 35.6167 141.466 35.5429 140.815 35.673C140.192 35.7973 139.677 36.0851 139.271 36.5364C138.878 36.9847 138.63 37.5894 138.526 38.3503C138.422 39.1112 138.475 40.0183 138.685 41.0717C138.896 42.1251 139.195 42.9831 139.583 43.6457C139.972 44.3083 140.434 44.7784 140.971 45.056C141.523 45.3307 142.118 45.4045 142.755 45.2773Z" fill="#3B1E1E"/>
<path d="M108.923 75.7055C107.765 75.9368 106.654 75.9514 105.59 75.7494C104.54 75.5445 103.575 75.1599 102.694 74.5955C101.814 74.0312 101.077 73.3198 100.484 72.4612C99.8886 71.5884 99.4813 70.6039 99.2625 69.5078C99.0408 68.3975 99.0389 67.3321 99.2567 66.3117C99.4746 65.2912 99.8757 64.36 100.46 63.5179C101.042 62.6616 101.78 61.9445 102.673 61.3664C103.578 60.7713 104.61 60.3581 105.768 60.1268C106.912 59.8985 108.009 59.8867 109.058 60.0916C110.12 60.2794 111.083 60.6569 111.949 61.2241C112.827 61.7742 113.564 62.4857 114.16 63.3585C114.753 64.217 115.16 65.2015 115.382 66.3118C115.6 67.4079 115.602 68.4733 115.387 69.508C115.169 70.5284 114.77 71.4668 114.188 72.3231C113.603 73.1652 112.858 73.8838 111.953 74.4789C111.063 75.0712 110.053 75.48 108.923 75.7055ZM108.27 72.6608C109.182 72.4787 109.939 72.1204 110.54 71.5859C111.155 71.0486 111.58 70.3865 111.815 69.5996C112.046 68.7984 112.068 67.9281 111.881 66.9886C111.738 66.2768 111.502 65.6579 111.171 65.1319C110.837 64.5916 110.427 64.1555 109.939 63.8237C109.448 63.4775 108.899 63.2541 108.292 63.1533C107.696 63.0354 107.058 63.0444 106.378 63.1802C105.465 63.3624 104.702 63.7221 104.086 64.2594C103.482 64.7796 103.063 65.4332 102.829 66.2201C102.592 66.9928 102.568 67.856 102.759 68.8097C102.901 69.5215 103.139 70.1475 103.472 70.6878C103.806 71.228 104.211 71.6727 104.687 72.0217C105.175 72.3536 105.724 72.577 106.334 72.692C106.944 72.8071 107.59 72.7966 108.27 72.6608Z" fill="#3B1E1E"/>
<path d="M119.051 73.4169L116.041 58.342L119.451 57.6613L122.461 72.7361L119.051 73.4169ZM120.476 66.9819L119.901 64.0993L127.568 62.5687L128.143 65.4513L120.476 66.9819ZM119.223 60.7043L118.648 57.8217L126.662 56.2217L127.237 59.1043L119.223 60.7043Z" fill="#3B1E1E"/>
<path d="M131.862 70.8593L128.852 55.7844L132.262 55.1036L135.271 70.1785L131.862 70.8593ZM133.287 64.4243L132.712 61.5417L140.378 60.0111L140.954 62.8937L133.287 64.4243ZM132.034 58.1467L131.458 55.2641L139.472 53.6641L140.048 56.5466L132.034 58.1467Z" fill="#3B1E1E"/>
<path d="M169 12.5C162.258 14.5043 161.024 16.129 159.5 25C157.978 16.129 156.742 14.5043 150 12.5C156.742 10.4957 157.976 8.87102 159.5 0C161.022 8.87102 162.258 10.4957 169 12.5Z" fill="#FFFAC0"/>
</svg>
