<svg width="15" height="18" viewBox="0 0 15 18" fill="none" xmlns="http://www.w3.org/2000/svg">
<path d="M9.32745 0.5H5.40437C4.68216 0.5 4.09668 1.08547 4.09668 1.80769V2.46154C4.09668 3.18375 4.68216 3.76923 5.40437 3.76923H9.32745C10.0497 3.76923 10.6351 3.18375 10.6351 2.46154V1.80769C10.6351 1.08547 10.0497 0.5 9.32745 0.5Z" stroke="black" stroke-linecap="round" stroke-linejoin="round"/>
<path d="M10.9615 1.80762H12.9231C13.2699 1.80762 13.6026 1.9454 13.8477 2.19063C14.0929 2.43587 14.2308 2.76848 14.2308 3.11531V16.1922C14.2308 16.539 14.0929 16.8717 13.8477 17.1169C13.6026 17.3621 13.2699 17.4999 12.9231 17.4999H1.80769C1.46087 17.4999 1.12825 17.3621 0.88301 17.1169C0.637779 16.8717 0.5 16.539 0.5 16.1922V3.11531C0.5 2.76848 0.637779 2.43587 0.88301 2.19063C1.12825 1.9454 1.46087 1.80762 1.80769 1.80762H3.76923" stroke="black" stroke-linecap="round" stroke-linejoin="round"/>
</svg>
