<svg width="421" height="217" viewBox="0 0 421 217" fill="none" xmlns="http://www.w3.org/2000/svg">
<path d="M238.896 172.017C255.655 168.271 360.085 44.4925 410.205 0V203.631H10.7949V0C63.2427 44.1022 172.328 167.334 189.086 172.017C210.035 177.872 217.948 176.701 238.896 172.017Z" fill="#FFFDE5"/>
<path d="M238.896 177.415C255.655 173.668 360.085 83.7464 410.205 39.2539V209.028H10.7949V39.2539C63.2427 83.3561 172.328 172.731 189.086 177.415C210.035 183.269 217.948 182.098 238.896 177.415Z" fill="#FFF8C0"/>
<path d="M240.431 190.383C258.096 187.242 368.171 111.874 421 74.583V216.879H0V74.583C55.2828 111.547 170.265 186.457 187.929 190.383C210.009 195.289 218.351 194.308 240.431 190.383Z" fill="#FFD400"/>
</svg>
