<svg width="19" height="20" viewBox="0 0 19 20" fill="none" xmlns="http://www.w3.org/2000/svg">
<path d="M11.5506 17.209C12.4205 17.209 12.8802 18.1615 12.2998 18.7606C11.9229 19.1508 11.461 19.4629 10.9445 19.6764C10.428 19.89 9.86849 20.0001 9.30274 19.9997C8.73698 20.0001 8.17751 19.89 7.661 19.6764C7.14449 19.4629 6.68261 19.1508 6.30562 18.7606C5.75046 18.1876 6.14672 17.2918 6.94327 17.2155L7.0539 17.2099L11.5506 17.209Z" fill="#3B1E1E"/>
<path d="M9.06977 0C10.438 0 11.5947 0.892498 11.9664 2.1161L12.0128 2.28511L12.0209 2.32761C13.1316 2.94228 14.078 3.80632 14.7827 4.84895C15.4875 5.89157 15.9304 7.08314 16.0752 8.32603L16.1034 8.6097L16.1225 8.89534V11.7923L16.1437 11.9267C16.2817 12.6549 16.6925 13.3062 17.2953 13.7522L17.4636 13.8678L17.6268 13.9657C18.4933 14.447 18.191 15.7111 17.247 15.808L17.1301 15.8139H1.00945C-0.0262963 15.8139 -0.388003 14.4658 0.512737 13.9657C0.89664 13.7526 1.22834 13.4596 1.48455 13.1073C1.74076 12.7551 1.91527 12.3521 1.99584 11.9267L2.01699 11.7853L2.018 8.84987C2.07943 7.55894 2.46249 6.30246 3.13364 5.1904C3.80478 4.07834 4.74356 3.14461 5.86781 2.47093L6.11768 2.32662L6.12776 2.28412C6.27028 1.6931 6.59419 1.1592 7.05579 0.754459C7.51738 0.349721 8.09444 0.0936329 8.70907 0.0207557L8.89245 0.00395343L9.06977 0Z" fill="#3B1E1E"/>
</svg>
