<svg width="21" height="20" viewBox="0 0 21 20" fill="none" xmlns="http://www.w3.org/2000/svg">
<path fill-rule="evenodd" clip-rule="evenodd" d="M4.83481 5.37939C6.32028 5.37939 7.52451 4.17517 7.52451 2.68969C7.52451 1.20422 6.32028 0 4.83481 0C3.34932 0 2.1451 1.20422 2.1451 2.68969C2.1451 4.17517 3.34932 5.37939 4.83481 5.37939ZM15.2591 5.37939C16.7446 5.37939 17.9488 4.17517 17.9488 2.68969C17.9488 1.20422 16.7446 0 15.2591 0C13.7736 0 12.5694 1.20422 12.5694 2.68969C12.5694 4.17517 13.7736 5.37939 15.2591 5.37939ZM9.12922 10.2574C8.84178 10.1141 8.59097 9.90829 8.39462 9.65775C8.10848 9.29276 7.93787 8.83282 7.93787 8.33303C7.93787 7.66823 8.23974 7.07394 8.71389 6.67972C8.71384 6.67972 8.71393 6.67972 8.71389 6.67972C9.08623 6.37013 9.56491 6.18401 10.087 6.18401C11.2739 6.18401 12.236 7.14616 12.236 8.33303C12.236 9.51995 11.2739 10.4821 10.087 10.4821C9.74283 10.4821 9.4176 10.4012 9.12922 10.2574ZM10.0859 10.8026C9.91761 10.8026 9.75919 10.8041 9.61032 10.807C9.37945 10.8114 9.15594 10.8429 8.94296 10.8986C8.65942 10.9729 8.39449 11.0903 8.15555 11.2451C7.58162 11.6167 7.15781 12.2033 6.98684 12.9216C6.9022 13.277 6.81967 13.6744 6.74911 14.1044C6.61135 14.9444 7.07779 15.6989 7.79894 16.0134C7.82154 16.0232 7.84435 16.0326 7.8674 16.0416L8.13946 18.4897C8.19455 18.9859 8.57532 19.3966 9.08744 19.4471C9.37717 19.4757 9.73113 19.5005 10.087 19.5005C10.4429 19.5005 10.7968 19.4757 11.0866 19.4471C11.5987 19.3966 11.9794 18.9859 12.0345 18.4897L12.3067 16.0405C13.065 15.7443 13.5642 14.9697 13.4222 14.1044C13.3517 13.6744 13.2692 13.2769 13.1845 12.9214C12.8889 11.6797 11.8377 10.8316 10.5613 10.807C10.4124 10.8041 10.2541 10.8026 10.0859 10.8026ZM6.59302 8.33303C6.59302 7.67598 6.77439 7.06125 7.08985 6.53622C6.4432 6.5148 5.68861 6.50009 4.83504 6.50009C3.39407 6.50009 2.23524 6.54196 1.40158 6.58746C0.452396 6.63928 -0.186908 7.53674 0.0492741 8.4512C0.724889 11.0671 1.42519 13.1497 1.64196 13.7771L2.05155 18.0781C2.11695 18.7648 2.62899 19.3416 3.33468 19.4172C3.75427 19.4621 4.27509 19.5003 4.83499 19.5003C5.39243 19.5003 5.91109 19.4624 6.3297 19.4178C6.5542 19.3938 6.75902 19.3192 6.93618 19.2064C6.86961 19.024 6.82438 18.8332 6.80273 18.6382L6.60508 16.8594C5.73855 16.1968 5.22365 15.096 5.42202 13.8867C5.49823 13.4222 5.5873 12.9934 5.67852 12.6101C5.90778 11.6471 6.45038 10.8389 7.18704 10.2825C6.81196 9.72566 6.59302 9.05494 6.59302 8.33303ZM13.371 18.6382C13.3494 18.8332 13.3042 19.0241 13.2376 19.2065C13.4191 19.3313 13.634 19.4133 13.8732 19.4362C14.2465 19.4721 14.7134 19.5003 15.2589 19.5003C15.8045 19.5003 16.2714 19.4721 16.6446 19.4362C17.3588 19.3676 17.8554 18.7733 17.8983 18.0846L18.0954 14.9213C18.4334 14.8956 18.7272 14.8668 18.9799 14.8376C19.827 14.7394 20.3247 13.9386 20.1304 13.1324C19.5948 10.9109 18.9767 9.05221 18.5771 7.94253C18.2995 7.17175 17.6268 6.61297 16.7943 6.55227C16.3863 6.52255 15.8745 6.50009 15.2589 6.50009C14.6433 6.50009 14.1315 6.52255 13.7235 6.55227C13.5267 6.56662 13.3389 6.6088 13.1631 6.67506C13.4295 7.16835 13.5808 7.73305 13.5808 8.33303C13.5808 9.05544 13.3615 9.72665 12.9859 10.2837C13.7217 10.84 14.2636 11.6477 14.4927 12.61C14.584 12.9933 14.673 13.4222 14.7492 13.8868C14.9474 15.0947 14.4338 16.1945 13.569 16.8573L13.371 18.6382Z" fill="#3B1E1E"/>
</svg>
