<svg width="20" height="20" viewBox="0 0 20 20" fill="none" xmlns="http://www.w3.org/2000/svg">
<path d="M7.85652 1.07725C8.58318 0.907633 9.30805 1.36643 9.47587 2.1009C9.64329 2.83516 9.19133 3.5681 8.46489 3.73767C7.61503 3.93607 6.81164 4.31022 6.10885 4.8413C4.30334 6.20578 3.33928 8.51983 3.63502 10.7788C3.93079 13.0379 5.45768 15.0188 7.55236 15.8615C8.59313 16.2802 9.72584 16.4108 10.8332 16.2401C11.9405 16.0693 12.9822 15.6026 13.8521 14.8894C14.5462 14.3202 15.1122 13.6106 15.5119 12.8083C15.8473 12.1351 16.6585 11.8634 17.3246 12.2023C17.9904 12.5412 18.259 13.3615 17.9242 14.0346C17.3532 15.1809 16.5458 16.1963 15.5541 17.0096C14.3115 18.0284 12.8228 18.6938 11.2411 18.9378C9.65913 19.1817 8.04053 18.9957 6.55368 18.3975C3.55101 17.1895 1.38331 14.3761 0.958981 11.1378C0.534947 7.89913 1.90437 4.61151 4.49303 2.65537C5.49681 1.89695 6.6428 1.36064 7.85652 1.07725ZM9.88201 4.88394C10.5035 4.88394 11.0073 5.39318 11.0073 6.02132V8.98032H13.1488C13.7703 8.98032 14.274 9.48958 14.2741 10.1177C14.2739 10.7457 13.7702 11.2551 13.1488 11.2551H9.88201C9.2609 11.2548 8.7569 10.7455 8.75674 10.1177V6.02132C8.75674 5.39336 9.26081 4.88425 9.88201 4.88394ZM17.2121 7.32577C17.9476 7.20321 18.6429 7.70555 18.7646 8.44895C18.8326 8.86476 18.8722 9.28983 18.8824 9.7214C18.9002 10.4747 18.3106 11.0997 17.5655 11.1182C16.8201 11.1363 16.1998 10.5406 16.1818 9.78715C16.1746 9.48352 16.1466 9.18554 16.0991 8.895C15.9775 8.15132 16.4763 7.44876 17.2121 7.32577ZM14.5554 3.66835C15.1006 3.15402 15.956 3.18488 16.4648 3.73589C16.7392 4.03306 16.9944 4.34887 17.2279 4.68135C17.6595 5.29602 17.516 6.1484 16.9079 6.58469C16.2998 7.02068 15.4564 6.8758 15.0249 6.26125C14.8613 6.02835 14.6828 5.80677 14.4904 5.59836C13.9814 5.04734 14.0103 4.18274 14.5554 3.66835ZM10.3655 2.10445C10.54 1.37157 11.2703 0.920465 11.9954 1.0968C12.3974 1.19458 12.7892 1.31979 13.1682 1.47C13.8621 1.74528 14.205 2.53671 13.933 3.23829C13.6607 3.94005 12.8761 4.28654 12.1818 4.01135C11.9171 3.90644 11.6432 3.8184 11.3625 3.75012C10.638 3.57352 10.1916 2.83687 10.3655 2.10445Z" fill="#A3A3A3"/>
</svg>
