<svg width="42" height="42" viewBox="0 0 42 42" fill="none" xmlns="http://www.w3.org/2000/svg">
<path fill-rule="evenodd" clip-rule="evenodd" d="M16.4259 14.9814C16.4259 13.3541 16.8798 12.2527 17.5755 11.557C18.2712 10.8613 19.3726 10.4074 20.9999 10.4074C22.6271 10.4074 23.7285 10.8613 24.4242 11.557C25.1199 12.2527 25.5739 13.3541 25.5739 14.9814C25.5739 16.6087 25.1199 17.71 24.4242 18.4057C23.7285 19.1014 22.6271 19.5554 20.9999 19.5554C19.3726 19.5554 18.2712 19.1014 17.5755 18.4057C16.8798 17.71 16.4259 16.6087 16.4259 14.9814ZM20.9999 8C18.9294 8 17.1419 8.58603 15.8732 9.85475C14.6045 11.1235 14.0185 12.9109 14.0185 14.9814C14.0185 17.0518 14.6045 18.8393 15.8732 20.108C17.1419 21.3767 18.9294 21.9627 20.9999 21.9627C23.0703 21.9627 24.8577 21.3767 26.1265 20.108C27.3951 18.8393 27.9811 17.0518 27.9811 14.9814C27.9811 12.9109 27.3951 11.1235 26.1265 9.85475C24.8577 8.58603 23.0703 8 20.9999 8ZM9.8024 26.7798C13.0077 24.6513 16.8602 23.4109 20.9998 23.4109C25.1395 23.4109 28.992 24.6513 32.1973 26.7798C33.0401 27.3394 33.6109 28.0869 33.8603 28.941C34.1078 29.7888 34.013 30.6552 33.677 31.4113C33.0077 32.9174 31.3934 33.9996 29.4213 33.9996H12.5785C10.6063 33.9996 8.99201 32.9174 8.32271 31.4113C7.98674 30.6552 7.8919 29.7888 8.13944 28.941C8.3888 28.0869 8.95962 27.3394 9.8024 26.7798Z" fill="#3B1E1E"/>
</svg>
