<svg width="42" height="42" viewBox="0 0 42 42" fill="none" xmlns="http://www.w3.org/2000/svg">
<path fill-rule="evenodd" clip-rule="evenodd" d="M18.941 9.6288C20.167 8.79039 21.8332 8.7904 23.0592 9.62883L24.4812 10.6013C28.683 13.4747 32.2903 17.0043 35.1294 21.0287L35.5854 21.6754C36.1436 22.4666 36.1041 23.419 35.6689 24.1322C35.2429 24.83 34.4642 25.2764 33.5818 25.2764H32.3657C32.4298 27.2653 32.3175 29.6521 32.0235 31.3702C31.6774 33.3935 29.8065 34.7144 27.8149 34.7144H14.1852C12.1936 34.7144 10.3227 33.3935 9.97667 31.3702C9.6828 29.6521 9.57047 27.2653 9.63444 25.2764H8.41817C7.53572 25.2764 6.75699 24.83 6.33099 24.1321C5.89568 23.419 5.85632 22.4666 6.41448 21.6754L6.87073 21.0286C9.70967 17.0043 13.3169 13.4748 17.5188 10.6014L18.941 9.6288ZM21.5472 11.8399C21.2328 11.6248 20.7674 11.6248 20.453 11.8399L19.0308 12.8124C15.0825 15.5124 11.7075 18.8189 9.05951 22.5727L9.04176 22.5978H11.0546C11.431 22.5978 11.79 22.7562 12.0437 23.0342C12.2975 23.3121 12.4226 23.684 12.3883 24.0589C12.2101 26.0106 12.29 29.0075 12.6169 30.9187C12.7099 31.4622 13.2923 32.0358 14.1852 32.0358H16.8906V26.861C16.8906 24.5915 18.7303 22.7518 20.9998 22.7518C23.2692 22.7518 25.1089 24.5915 25.1089 26.861V32.0358H27.8149C28.7079 32.0358 29.2903 31.4622 29.3833 30.9187C29.7103 29.0075 29.7902 26.0106 29.6119 24.0589C29.5776 23.684 29.7028 23.3121 29.9565 23.0341C30.2102 22.7562 30.5691 22.5978 30.9456 22.5978H32.9582L32.9404 22.5728C30.2925 18.8189 26.9175 15.5124 22.9692 12.8123L21.5472 11.8399Z" fill="#FFD400"/>
</svg>
