<svg width="60" height="60" viewBox="0 0 60 60" fill="none" xmlns="http://www.w3.org/2000/svg">
<g clip-path="url(#clip0_269_119)">
<circle cx="30" cy="30" r="30" fill="#FFD400"/>
<path d="M27.0483 31.5632C27.8326 31.643 28.4444 32.3058 28.4444 33.1111V42.4444C28.4444 43.3036 27.748 44 26.8889 44H17.5556C16.6965 44 16 43.3036 16 42.4444V33.1111L16.0076 32.9517C16.0874 32.1674 16.7503 31.5556 17.5556 31.5556H26.8889L27.0483 31.5632ZM37.7778 44H34.6667V40.8889H37.7778V44ZM44 44H40.8889V40.8889H44V44ZM19.1111 40.8889H25.3333V34.6667H19.1111V40.8889ZM34.6667 40.8889H31.5556V37.7778H34.6667V40.8889ZM40.8889 40.8889H37.7778V37.7778H40.8889V40.8889ZM37.7778 37.7778H34.6667V34.6667H37.7778V37.7778ZM44 37.7778H40.8889V34.6667H44V37.7778ZM34.6667 34.6667H31.5556V31.5556H34.6667V34.6667ZM40.8889 34.6667H37.7778V31.5556H40.8889V34.6667ZM27.0483 16.0076C27.8326 16.0874 28.4444 16.7503 28.4444 17.5556V26.8889C28.4444 27.748 27.748 28.4444 26.8889 28.4444H17.5556C16.6965 28.4444 16 27.748 16 26.8889V17.5556L16.0076 17.396C16.0874 16.6118 16.7503 16 17.5556 16H26.8889L27.0483 16.0076ZM42.6039 16.0076C43.3882 16.0874 44 16.7503 44 17.5556V26.8889C44 27.748 43.3036 28.4444 42.4444 28.4444H33.1111C32.252 28.4444 31.5556 27.748 31.5556 26.8889V17.5556L31.5632 17.396C31.643 16.6118 32.3058 16 33.1111 16H42.4444L42.6039 16.0076ZM19.1111 25.3333H25.3333V19.1111H19.1111V25.3333ZM34.6667 25.3333H40.8889V19.1111H34.6667V25.3333Z" fill="black"/>
</g>
<defs>
<clipPath id="clip0_269_119">
<rect width="60" height="60" fill="white"/>
</clipPath>
</defs>
</svg>
