<svg width="42" height="42" viewBox="0 0 42 42" fill="none" xmlns="http://www.w3.org/2000/svg">
<path d="M15.5217 19.1738H14.3043C13.9814 19.1738 13.6718 19.3021 13.4435 19.5304C13.2152 19.7587 13.0869 20.0683 13.0869 20.3912C13.0869 20.7141 13.2152 21.0237 13.4435 21.252C13.6718 21.4803 13.9814 21.6086 14.3043 21.6086H15.5217C15.8446 21.6086 16.1542 21.4803 16.3825 21.252C16.6108 21.0237 16.7391 20.7141 16.7391 20.3912C16.7391 20.0683 16.6108 19.7587 16.3825 19.5304C16.1542 19.3021 15.8446 19.1738 15.5217 19.1738Z" fill="#3B1E1E"/>
<path d="M21.6086 19.1738H20.3912C20.0683 19.1738 19.7587 19.3021 19.5304 19.5304C19.3021 19.7587 19.1738 20.0683 19.1738 20.3912C19.1738 20.7141 19.3021 21.0237 19.5304 21.252C19.7587 21.4803 20.0683 21.6086 20.3912 21.6086H21.6086C21.9315 21.6086 22.2411 21.4803 22.4694 21.252C22.6977 21.0237 22.826 20.7141 22.826 20.3912C22.826 20.0683 22.6977 19.7587 22.4694 19.5304C22.2411 19.3021 21.9315 19.1738 21.6086 19.1738Z" fill="#3B1E1E"/>
<path d="M27.6955 19.1738H26.4781C26.1553 19.1738 25.8456 19.3021 25.6173 19.5304C25.389 19.7587 25.2607 20.0683 25.2607 20.3912C25.2607 20.7141 25.389 21.0237 25.6173 21.252C25.8456 21.4803 26.1553 21.6086 26.4781 21.6086H27.6955C28.0184 21.6086 28.328 21.4803 28.5564 21.252C28.7847 21.0237 28.9129 20.7141 28.9129 20.3912C28.9129 20.0683 28.7847 19.7587 28.5564 19.5304C28.328 19.3021 28.0184 19.1738 27.6955 19.1738Z" fill="#3B1E1E"/>
<path d="M15.5217 24.0439H14.3043C13.9814 24.0439 13.6718 24.1722 13.4435 24.4005C13.2152 24.6288 13.0869 24.9385 13.0869 25.2613C13.0869 25.5842 13.2152 25.8939 13.4435 26.1222C13.6718 26.3505 13.9814 26.4787 14.3043 26.4787H15.5217C15.8446 26.4787 16.1542 26.3505 16.3825 26.1222C16.6108 25.8939 16.7391 25.5842 16.7391 25.2613C16.7391 24.9385 16.6108 24.6288 16.3825 24.4005C16.1542 24.1722 15.8446 24.0439 15.5217 24.0439Z" fill="#3B1E1E"/>
<path d="M21.6086 24.0439H20.3912C20.0683 24.0439 19.7587 24.1722 19.5304 24.4005C19.3021 24.6288 19.1738 24.9385 19.1738 25.2613C19.1738 25.5842 19.3021 25.8939 19.5304 26.1222C19.7587 26.3505 20.0683 26.4787 20.3912 26.4787H21.6086C21.9315 26.4787 22.2411 26.3505 22.4694 26.1222C22.6977 25.8939 22.826 25.5842 22.826 25.2613C22.826 24.9385 22.6977 24.6288 22.4694 24.4005C22.2411 24.1722 21.9315 24.0439 21.6086 24.0439Z" fill="#3B1E1E"/>
<path d="M27.6955 24.0439H26.4781C26.1553 24.0439 25.8456 24.1722 25.6173 24.4005C25.389 24.6288 25.2607 24.9385 25.2607 25.2613C25.2607 25.5842 25.389 25.8939 25.6173 26.1222C25.8456 26.3505 26.1553 26.4787 26.4781 26.4787H27.6955C28.0184 26.4787 28.328 26.3505 28.5564 26.1222C28.7847 25.8939 28.9129 25.5842 28.9129 25.2613C28.9129 24.9385 28.7847 24.6288 28.5564 24.4005C28.328 24.1722 28.0184 24.0439 27.6955 24.0439Z" fill="#3B1E1E"/>
<path d="M15.5217 28.9131H14.3043C13.9814 28.9131 13.6718 29.0413 13.4435 29.2697C13.2152 29.498 13.0869 29.8076 13.0869 30.1305C13.0869 30.4533 13.2152 30.763 13.4435 30.9913C13.6718 31.2196 13.9814 31.3479 14.3043 31.3479H15.5217C15.8446 31.3479 16.1542 31.2196 16.3825 30.9913C16.6108 30.763 16.7391 30.4533 16.7391 30.1305C16.7391 29.8076 16.6108 29.498 16.3825 29.2697C16.1542 29.0413 15.8446 28.9131 15.5217 28.9131Z" fill="#3B1E1E"/>
<path d="M21.6086 28.9131H20.3912C20.0683 28.9131 19.7587 29.0413 19.5304 29.2697C19.3021 29.498 19.1738 29.8076 19.1738 30.1305C19.1738 30.4533 19.3021 30.763 19.5304 30.9913C19.7587 31.2196 20.0683 31.3479 20.3912 31.3479H21.6086C21.9315 31.3479 22.2411 31.2196 22.4694 30.9913C22.6977 30.763 22.826 30.4533 22.826 30.1305C22.826 29.8076 22.6977 29.498 22.4694 29.2697C22.2411 29.0413 21.9315 28.9131 21.6086 28.9131Z" fill="#3B1E1E"/>
<path d="M27.6955 28.9131H26.4781C26.1553 28.9131 25.8456 29.0413 25.6173 29.2697C25.389 29.498 25.2607 29.8076 25.2607 30.1305C25.2607 30.4533 25.389 30.763 25.6173 30.9913C25.8456 31.2196 26.1553 31.3479 26.4781 31.3479H27.6955C28.0184 31.3479 28.328 31.2196 28.5564 30.9913C28.7847 30.763 28.9129 30.4533 28.9129 30.1305C28.9129 29.8076 28.7847 29.498 28.5564 29.2697C28.328 29.0413 28.0184 28.9131 27.6955 28.9131Z" fill="#3B1E1E"/>
<path d="M32.5652 10.0438H29.2174C29.1367 10.0438 29.0593 10.0117 29.0022 9.95463C28.9451 9.89756 28.913 9.82015 28.913 9.73943V7.60899C28.913 7.28612 28.7848 6.97647 28.5565 6.74817C28.3282 6.51986 28.0185 6.3916 27.6957 6.3916C27.3728 6.3916 27.0631 6.51986 26.8348 6.74817C26.6065 6.97647 26.4783 7.28612 26.4783 7.60899V13.3916C26.4783 13.6338 26.3821 13.866 26.2108 14.0372C26.0396 14.2085 25.8074 14.3046 25.5652 14.3046C25.3231 14.3046 25.0908 14.2085 24.9196 14.0372C24.7484 13.866 24.6522 13.6338 24.6522 13.3916V10.6525C24.6522 10.491 24.588 10.3362 24.4739 10.2221C24.3597 10.1079 24.2049 10.0438 24.0435 10.0438H16.4348C16.3541 10.0438 16.2767 10.0117 16.2196 9.95463C16.1625 9.89756 16.1304 9.82015 16.1304 9.73943V7.60899C16.1304 7.28612 16.0022 6.97647 15.7739 6.74817C15.5456 6.51986 15.2359 6.3916 14.913 6.3916C14.5902 6.3916 14.2805 6.51986 14.0522 6.74817C13.8239 6.97647 13.6957 7.28612 13.6957 7.60899V13.3916C13.6957 13.6338 13.5995 13.866 13.4282 14.0372C13.257 14.2085 13.0248 14.3046 12.7826 14.3046C12.5405 14.3046 12.3082 14.2085 12.137 14.0372C11.9658 13.866 11.8696 13.6338 11.8696 13.3916V10.6525C11.8696 10.491 11.8054 10.3362 11.6913 10.2221C11.5771 10.1079 11.4223 10.0438 11.2609 10.0438H9.43478C8.78904 10.0438 8.16974 10.3003 7.71313 10.7569C7.25652 11.2135 7 11.8328 7 12.4786V33.1742C7 33.82 7.25652 34.4393 7.71313 34.8959C8.16974 35.3525 8.78904 35.609 9.43478 35.609H32.5652C33.211 35.609 33.8303 35.3525 34.2869 34.8959C34.7435 34.4393 35 33.82 35 33.1742V12.4786C35 11.8328 34.7435 11.2135 34.2869 10.7569C33.8303 10.3003 33.211 10.0438 32.5652 10.0438ZM32.5652 32.5655C32.5652 32.727 32.5011 32.8818 32.3869 32.9959C32.2728 33.1101 32.118 33.1742 31.9565 33.1742H10.0435C9.88204 33.1742 9.72722 33.1101 9.61307 32.9959C9.49891 32.8818 9.43478 32.727 9.43478 32.5655V17.9568C9.43478 17.7954 9.49891 17.6406 9.61307 17.5264C9.72722 17.4123 9.88204 17.3481 10.0435 17.3481H31.9565C32.118 17.3481 32.2728 17.4123 32.3869 17.5264C32.5011 17.6406 32.5652 17.7954 32.5652 17.9568V32.5655Z" fill="#3B1E1E"/>
</svg>
