<svg width="42" height="42" viewBox="0 0 42 42" fill="none" xmlns="http://www.w3.org/2000/svg">
<path fill-rule="evenodd" clip-rule="evenodd" d="M16.2124 9.15289C15.4839 8.54582 14.4013 8.64425 13.7942 9.37272C13.1871 10.1012 13.2856 11.1839 14.014 11.7909L16.8463 14.1511H11.1887C9.42763 14.1511 8 15.5788 8 17.3398V21.2644C8 22.5908 8.80995 23.7281 9.96226 24.2087V32.0568C9.96226 32.9026 10.2982 33.7136 10.8962 34.3115C11.4942 34.9096 12.3052 35.2455 13.1509 35.2455H28.8491C29.6948 35.2455 30.5058 34.9096 31.1037 34.3115C31.7018 33.7136 32.0377 32.9026 32.0377 32.0568V24.2087C33.19 23.7281 34 22.5908 34 21.2644V17.3398C34 15.5788 32.5725 14.1511 30.8113 14.1511H25.1537L27.9861 11.7909C28.7144 11.1839 28.813 10.1012 28.2058 9.37272C27.5987 8.64425 26.5161 8.54582 25.7876 9.15289L21 13.1426L16.2124 9.15289ZM11.1887 16.604H18.7925V22.0002H11.1887C10.7823 22.0002 10.4528 21.6708 10.4528 21.2644V17.3398C10.4528 16.9334 10.7823 16.604 11.1887 16.604ZM23.2075 16.604V22.0002H30.8113C31.2177 22.0002 31.5472 21.6708 31.5472 21.2644V17.3398C31.5472 16.9334 31.2177 16.604 30.8113 16.604H23.2075ZM12.4151 24.453H18.7925V32.7927H13.1509C12.9558 32.7927 12.7686 32.7152 12.6306 32.5772C12.4926 32.4391 12.4151 32.2519 12.4151 32.0568V24.453ZM23.2075 24.453V32.7927H28.8491C29.0443 32.7927 29.2313 32.7152 29.3694 32.5772C29.5074 32.4391 29.5849 32.2519 29.5849 32.0568V24.453H23.2075Z" fill="#3B1E1E"/>
</svg>
