<svg width="27" height="27" viewBox="0 0 27 27" fill="none" xmlns="http://www.w3.org/2000/svg">
<path d="M15.1995 0.108311C17.1945 1.14376 18.953 1.39401 20.7689 2.78992C31.8986 11.3376 23.6018 28.4535 10.3073 25.8798C8.02762 25.439 6.09232 24.1487 4.01469 23.104C-0.103846 19.038 -1.17136 12.8 1.36083 7.59524C3.89072 2.39043 9.45786 -0.621785 15.1995 0.108311ZM23.1243 13.1352C23.1243 7.49881 18.5558 2.92997 12.9198 2.92997C7.2838 2.92997 2.71531 7.49881 2.71531 13.1352C2.71531 18.7717 7.2838 23.3405 12.9198 23.3405C18.5558 23.3405 23.1243 18.7717 23.1243 13.1352Z" fill="#FAD82F"/>
<path d="M15.1991 0.108398C21.0394 0.849974 25.7273 5.29254 26.781 11.0874C27.8348 16.8822 25.0087 22.6886 19.802 25.4391C14.5953 28.1872 8.2063 27.2436 4.0166 23.1064C6.09423 24.1488 8.02953 25.4391 10.3092 25.8822C23.6037 28.4559 31.9005 11.3399 20.7708 2.79231C18.9549 1.3964 17.1964 1.14614 15.2014 0.110693L15.1991 0.108398Z" fill="#FAC123"/>
<path d="M23.1239 13.135C23.1239 18.7714 18.5554 23.3402 12.9194 23.3402C7.28334 23.3402 2.71484 18.7714 2.71484 13.135C2.71484 7.49853 7.28334 2.92969 12.9194 2.92969C18.5554 2.92969 23.1239 7.49853 23.1239 13.135ZM18.7436 10.0975C18.0916 9.91152 15.5319 10.0975 14.6113 10.0975C14.3381 10.0975 12.8941 7.42506 12.5406 7.11741C11.1126 5.86844 11.0323 10.3363 10.3596 10.8965C9.90736 11.273 6.59462 11.9824 6.46377 12.1684C5.8026 13.1028 9.42296 14.6135 9.62728 14.9648C10.0313 15.6582 9.08089 19.2972 10.2793 19.49C11.3078 19.2237 12.7908 17.3388 13.7091 17.2148C14.7054 17.0816 17.233 18.7301 17.8391 17.915C18.2477 17.3617 16.503 14.6548 16.6201 13.9247C16.7234 13.2796 18.9893 11.0847 19.0857 10.6669C19.1316 10.4625 18.8882 10.1411 18.7436 10.0998L18.7436 10.0975Z" fill="#FAC123"/>
<path d="M18.7432 10.0982C18.8878 10.1395 19.1312 10.4632 19.0853 10.6653C18.9911 11.0831 16.723 13.278 16.6197 13.9232C16.5026 14.6555 18.2496 17.3624 17.8387 17.9134C17.2349 18.7285 14.705 17.08 13.7087 17.2132C12.7904 17.3372 11.3073 19.2221 10.2789 19.4884C9.07819 19.2956 10.0309 15.6566 9.62687 14.9632C9.42255 14.6119 5.80219 13.1012 6.46336 12.1668C6.59422 11.9831 9.90695 11.2714 10.3592 10.8949C11.0319 10.3347 11.1122 5.86685 12.5402 7.11582C12.8937 7.42577 14.3354 10.0959 14.6109 10.0959C15.5315 10.0959 18.0912 9.90993 18.7432 10.0959L18.7432 10.0982Z" fill="#3B1E1E"/>
</svg>
