<svg width="27" height="27" viewBox="0 0 27 27" fill="none" xmlns="http://www.w3.org/2000/svg">
<path d="M15.1868 0.108311C17.1802 1.14376 18.9372 1.39401 20.7516 2.78992C31.8721 11.3376 23.5822 28.4535 10.2987 25.8798C8.02095 25.439 6.08726 24.1487 4.01135 23.104C-0.10376 19.038 -1.17039 12.8 1.3597 7.59524C3.88748 2.39043 9.44999 -0.621785 15.1868 0.108311ZM23.1051 13.1352C23.1051 7.49881 18.5404 2.92997 12.9091 2.92997C7.27775 2.92997 2.71305 7.49881 2.71305 13.1352C2.71305 18.7717 7.27775 23.3405 12.9091 23.3405C18.5404 23.3405 23.1051 18.7717 23.1051 13.1352Z" fill="#FAD82F"/>
<path d="M15.1869 0.108398C21.0223 0.849974 25.7063 5.29254 26.7592 11.0874C27.812 16.8822 24.9884 22.6886 19.786 25.4391C14.5836 28.1872 8.19989 27.2436 4.01367 23.1064C6.08958 24.1488 8.02327 25.4391 10.301 25.8822C23.5845 28.4559 31.8744 11.3399 20.754 2.79231C18.9395 1.3964 17.1825 1.14614 15.1892 0.110693L15.1869 0.108398Z" fill="#FAC123"/>
<path d="M23.1049 13.135C23.1049 18.7714 18.5402 23.3402 12.9089 23.3402C7.27759 23.3402 2.71289 18.7714 2.71289 13.135C2.71289 7.49853 7.27759 2.92969 12.9089 2.92969C18.5402 2.92969 23.1049 7.49853 23.1049 13.135ZM18.7283 10.0975C18.0769 9.91152 15.5193 10.0975 14.5995 10.0975C14.3265 10.0975 12.8837 7.42506 12.5304 7.11741C11.1037 5.86844 11.0234 10.3363 10.3513 10.8965C9.89942 11.273 6.58944 11.9824 6.4587 12.1684C5.79808 13.1028 9.41543 14.6135 9.61958 14.9648C10.0233 15.6582 9.07365 19.2972 10.271 19.49C11.2987 19.2237 12.7805 17.3388 13.698 17.2148C14.6935 17.0816 17.219 18.7301 17.8246 17.915C18.2329 17.3617 16.4896 14.6548 16.6066 13.9247C16.7098 13.2796 18.9738 11.0847 19.0701 10.6669C19.116 10.4625 18.8728 10.1411 18.7283 10.0998L18.7283 10.0975Z" fill="#FAC123"/>
<path d="M18.728 10.0982C18.8726 10.1395 19.1157 10.4632 19.0698 10.6653C18.9758 11.0831 16.7095 13.278 16.6063 13.9232C16.4893 14.6555 18.2349 17.3624 17.8243 17.9134C17.221 18.7285 14.6932 17.08 13.6977 17.2132C12.7802 17.3372 11.2984 19.2221 10.2707 19.4884C9.07107 19.2956 10.023 15.6566 9.61929 14.9632C9.41514 14.6119 5.79779 13.1012 6.45841 12.1668C6.58916 11.9831 9.89914 11.2714 10.351 10.8949C11.0231 10.3347 11.1034 5.86685 12.5301 7.11582C12.8834 7.42577 14.3239 10.0959 14.5992 10.0959C15.519 10.0959 18.0766 9.90993 18.728 10.0959L18.728 10.0982Z" fill="#3B1E1E"/>
</svg>
