<svg width="20" height="20" viewBox="0 0 20 20" fill="none" xmlns="http://www.w3.org/2000/svg">
<path d="M11.2589 0.0798293C12.7367 0.842997 14.0393 1.02744 15.3845 2.05628C23.6287 8.35622 17.4829 20.9713 7.63507 19.0744C5.94642 18.7495 4.51286 17.7985 2.97386 17.0286C-0.0769234 14.0317 -0.867679 9.43413 1.00803 5.59799C2.88203 1.76184 7.00586 -0.45828 11.2589 0.0798293ZM17.1292 9.68118C17.1292 5.52691 13.7451 2.1595 9.57029 2.1595C5.39544 2.1595 2.01135 5.52691 2.01135 9.68118C2.01135 13.8355 5.39544 17.2029 9.57029 17.2029C13.7451 17.2029 17.1292 13.8355 17.1292 9.68118Z" fill="#FAD82F"/>
<path d="M11.259 0.0800781C15.5852 0.626648 19.0577 3.90099 19.8382 8.17202C20.6188 12.443 18.5254 16.7225 14.6686 18.7498C10.8117 20.7753 6.07909 20.0798 2.97559 17.0305C4.51458 17.7988 5.94815 18.7498 7.63679 19.0763C17.4847 20.9733 23.6304 8.35816 15.3862 2.05822C14.0411 1.02938 12.7384 0.844937 11.2607 0.0817694L11.259 0.0800781Z" fill="#FAC123"/>
<path d="M17.1296 9.68086C17.1296 13.8351 13.7455 17.2025 9.57066 17.2025C5.39581 17.2025 2.01172 13.8351 2.01172 9.68086C2.01172 5.52659 5.39581 2.15918 9.57066 2.15918C13.7455 2.15918 17.1296 5.52659 17.1296 9.68086ZM13.885 7.44213C13.402 7.30506 11.5059 7.44213 10.824 7.44213C10.6216 7.44213 9.55195 5.47244 9.29007 5.24569C8.23233 4.32515 8.17281 7.61811 7.67455 8.031C7.33954 8.30851 4.88565 8.83139 4.78872 8.96846C4.29896 9.65717 6.98072 10.7706 7.13207 11.0295C7.43137 11.5406 6.72734 14.2226 7.61503 14.3648C8.37687 14.1685 9.47543 12.7792 10.1556 12.6878C10.8937 12.5897 12.766 13.8047 13.2149 13.204C13.5176 12.7961 12.2252 10.8011 12.3119 10.263C12.3885 9.78747 14.0669 8.16976 14.1383 7.86178C14.1723 7.71118 13.9921 7.47427 13.885 7.44382L13.885 7.44213Z" fill="#FAC123"/>
<path d="M13.8844 7.44181C13.9916 7.47227 14.1718 7.71087 14.1378 7.85978C14.0681 8.16775 12.3879 9.78546 12.3114 10.261C12.2247 10.8008 13.5188 12.7958 13.2144 13.2019C12.7672 13.8027 10.8932 12.5877 10.1551 12.6858C9.47489 12.7772 8.37634 14.1665 7.61449 14.3628C6.72511 14.2206 7.43083 11.5386 7.13154 11.0275C6.98019 10.7686 4.29842 9.65517 4.78818 8.96645C4.88511 8.83108 7.339 8.30651 7.67401 8.029C8.17227 7.61611 8.23179 4.32315 9.28953 5.24369C9.55142 5.47213 10.6194 7.44012 10.8234 7.44012C11.5054 7.44012 13.4015 7.30306 13.8844 7.44012L13.8844 7.44181Z" fill="#3B1E1E"/>
</svg>
