<svg width="42" height="42" viewBox="0 0 42 42" fill="none" xmlns="http://www.w3.org/2000/svg">
<rect width="42" height="42" rx="21" fill="white"/>
<g clip-path="url(#clip0_263_3325)">
<path d="M15.25 15.5C15.25 15.086 15.586 14.75 16 14.75H24C24.414 14.75 24.75 15.086 24.75 15.5C24.75 15.914 24.414 16.25 24 16.25H16C15.586 16.25 15.25 15.914 15.25 15.5ZM17 20.75H16C15.586 20.75 15.25 21.086 15.25 21.5C15.25 21.914 15.586 22.25 16 22.25H17C17.414 22.25 17.75 21.914 17.75 21.5C17.75 21.086 17.414 20.75 17 20.75ZM16 19.25H20C20.414 19.25 20.75 18.914 20.75 18.5C20.75 18.086 20.414 17.75 20 17.75H16C15.586 17.75 15.25 18.086 15.25 18.5C15.25 18.914 15.586 19.25 16 19.25ZM25.955 24.75H24.75V23.465C24.75 23.051 24.414 22.715 24 22.715C23.586 22.715 23.25 23.051 23.25 23.465V25.5C23.25 25.914 23.586 26.25 24 26.25H25.955C26.369 26.25 26.705 25.914 26.705 25.5C26.705 25.086 26.369 24.75 25.955 24.75ZM29.75 25.5C29.75 28.67 27.171 31.25 24 31.25C22.801 31.25 21.687 30.88 20.765 30.25H15C13.483 30.25 12.25 29.017 12.25 27.5V14.5C12.25 12.983 13.483 11.75 15 11.75H25C26.517 11.75 27.75 12.983 27.75 14.5V21.151C28.972 22.206 29.75 23.763 29.75 25.5ZM15 28.75H19.261C18.624 27.825 18.25 26.706 18.25 25.5C18.25 22.33 20.829 19.75 24 19.75C24.798 19.75 25.559 19.914 26.25 20.209V14.5C26.25 13.811 25.689 13.25 25 13.25H15C14.311 13.25 13.75 13.811 13.75 14.5V27.5C13.75 28.189 14.311 28.75 15 28.75ZM28.25 25.5C28.25 23.157 26.344 21.25 24 21.25C21.656 21.25 19.75 23.157 19.75 25.5C19.75 27.843 21.656 29.75 24 29.75C26.344 29.75 28.25 27.843 28.25 25.5Z" fill="#3B1E1E"/>
</g>
<defs>
<clipPath id="clip0_263_3325">
<rect width="21" height="21" fill="white" transform="translate(10.5 10.5)"/>
</clipPath>
</defs>
</svg>
