<svg width="21" height="21" viewBox="0 0 21 21" fill="none" xmlns="http://www.w3.org/2000/svg">
<path fill-rule="evenodd" clip-rule="evenodd" d="M2.00876 9.44296C0.933045 9.44296 0.00301761 8.5163 0 7.29916C0.000142846 7.29515 0.000535692 7.28595 0.00150436 7.27117C0.0035667 7.23975 0.00821809 7.18341 0.0185789 7.099C0.0393138 6.92991 0.082721 6.64975 0.17324 6.23309C0.354427 5.39914 0.722705 4.02608 1.46977 1.91361C1.77699 1.04489 2.49297 0.446092 3.3582 0.353332C7.75251 -0.117777 12.3351 -0.117777 16.7295 0.353332C17.5947 0.446092 18.3107 1.04489 18.6179 1.91361C19.365 4.02608 19.7332 5.39914 19.9144 6.23309C20.0049 6.64975 20.0483 6.92991 20.0691 7.099C20.0794 7.18341 20.0841 7.23975 20.0862 7.27117C20.0871 7.28595 20.0875 7.29519 20.0876 7.29916C20.0846 8.5163 19.1546 9.44296 18.0789 9.44296C17.0014 9.44296 16.0701 8.51326 16.0701 7.29323C16.0701 6.92344 15.7703 6.62364 15.4006 6.62364C15.0307 6.62364 14.731 6.92344 14.731 7.29323C14.731 8.51326 13.7997 9.44296 12.7222 9.44296C11.6447 9.44296 10.7134 8.51326 10.7134 7.29323C10.7134 6.92344 10.4136 6.62364 10.0438 6.62364C9.67401 6.62364 9.37426 6.92344 9.37426 7.29323C9.37426 8.51326 8.44295 9.44296 7.36549 9.44296C6.28799 9.44296 5.35672 8.51326 5.35672 7.29323C5.35672 6.92344 5.05693 6.62364 4.68713 6.62364C4.3173 6.62364 4.01755 6.92344 4.01755 7.29323C4.01755 8.51326 3.08622 9.44296 2.00876 9.44296ZM0.858783 10.5743V12.7929C0.858783 14.7957 0.939362 16.2955 1.0298 17.348C1.15667 18.8247 2.32855 19.9069 3.77944 19.9958C5.10576 20.077 7.14819 20.1583 10.0098 20.1583C12.8715 20.1583 14.9139 20.077 16.2402 19.9958C17.6911 19.9069 18.863 18.8247 18.9899 17.348C19.0803 16.2955 19.1609 14.7957 19.1609 12.7929V10.5992C18.823 10.719 18.4594 10.7843 18.0789 10.7843C16.9706 10.7843 16.006 10.2306 15.4006 9.38819C14.7951 10.2306 13.8305 10.7843 12.7222 10.7843C11.6139 10.7843 10.6493 10.2306 10.0438 9.38819C9.4384 10.2306 8.47379 10.7843 7.36549 10.7843C6.25714 10.7843 5.29258 10.2306 4.68713 9.38819C4.08169 10.2306 3.11709 10.7843 2.00877 10.7843C1.6026 10.7843 1.21574 10.7099 0.858783 10.5743ZM10.0098 13.4624C8.97295 13.4624 8.25595 13.5383 7.7776 13.6241C7.45383 13.6821 7.20537 13.9495 7.17925 14.4185C7.14234 15.0806 7.10828 16.1208 7.10828 17.7031C7.10828 18.0599 7.3941 18.3484 7.74171 18.3543C8.43005 18.3659 9.18521 18.3727 10.0098 18.3727C10.8344 18.3727 11.5896 18.3659 12.2779 18.3543C12.6256 18.3484 12.9114 18.0599 12.9114 17.7031C12.9114 16.1208 12.8773 15.0806 12.8404 14.4185C12.8143 13.9495 12.5658 13.6821 12.2421 13.6241C11.7637 13.5383 11.0467 13.4624 10.0098 13.4624Z" fill="#3B1E1E"/>
</svg>
