<svg width="86" height="86" viewBox="0 0 86 86" fill="none" xmlns="http://www.w3.org/2000/svg">
<path d="M37.4091 8.70648C43.0503 9.82475 47.5486 9.18203 53.008 11.3144C86.463 24.3647 78.3385 72.373 43.8431 75.5561C37.9285 76.1032 32.2514 74.3157 26.4007 73.234C13.3743 66.1851 6.28657 51.6148 8.77977 37.0093C11.2673 22.4055 22.7844 11.0188 37.4091 8.70648ZM66.1994 35.06C62.1642 21.2048 47.6727 13.2417 33.83 17.2732C19.9874 21.3047 12.0375 35.8034 16.0726 49.6587C20.1077 63.5139 34.5993 71.4769 48.4419 67.4454C62.2846 63.414 70.2345 48.9152 66.1994 35.06Z" fill="#FAD82F"/>
<path d="M37.4078 8.70619C52.2832 6.35147 66.9775 13.9187 73.7142 27.4096C80.4508 40.9005 77.6665 57.1948 66.8473 67.6803C56.0265 78.1602 39.6589 80.4107 26.4067 73.2377C32.2558 74.3138 37.9328 76.1012 43.8491 75.5598C78.3445 72.3767 86.4689 24.3684 53.014 11.3182C47.5545 9.18574 43.0562 9.82846 37.4151 8.71019L37.4078 8.70619Z" fill="#FAC123"/>
<path d="M66.1983 35.0597C70.2335 48.9149 62.2836 63.4137 48.4409 67.4452C34.5983 71.4766 20.1067 63.5136 16.0716 49.6584C12.0365 35.8032 19.9863 21.3044 33.829 17.2729C47.6716 13.2415 62.1632 21.2045 66.1983 35.0597ZM53.2654 30.7264C51.531 30.7356 45.3771 33.0237 43.116 33.6822C42.4451 33.8776 36.9852 28.3413 35.8966 27.8379C31.4953 25.7892 34.4965 36.8292 33.2454 38.6875C32.4042 39.9365 24.7756 44.05 24.5874 44.6008C23.6324 47.3707 33.6059 48.4946 34.3592 49.2119C35.848 50.6273 36.1188 60.2523 39.2002 59.8692C41.5356 58.4788 43.8287 52.7846 45.9954 51.823C48.3472 50.7829 55.7353 53.0271 56.6404 50.59C57.248 48.9376 51.0248 43.5318 50.7897 41.6533C50.5816 39.9936 54.5755 32.9774 54.5132 31.8813C54.4797 31.3462 53.6519 30.7301 53.2671 30.732L53.2654 30.7264Z" fill="#FAC123"/>
<path d="M53.2668 30.7261C53.6516 30.7242 54.481 31.3459 54.5129 31.8754C54.5809 32.9699 50.5813 39.9877 50.7894 41.6474C51.0262 43.5315 57.255 48.9357 56.6401 50.5841C55.7407 53.0195 48.3469 50.777 45.9951 51.8171C43.8284 52.7787 41.5353 58.473 39.1999 59.8633C36.1129 60.2481 35.8477 50.6214 34.3589 49.206C33.6056 48.4887 23.6321 47.3648 24.5871 44.5949C24.777 44.0498 32.4039 39.9306 33.2451 38.6816C34.4962 36.8234 31.495 25.7833 35.8963 27.832C36.9866 28.3411 42.4391 33.8734 43.1157 33.6763C45.3768 33.0178 51.5307 30.7297 53.2651 30.7205L53.2668 30.7261Z" fill="#3B1E1E"/>
</svg>
