<svg width="599" height="172" viewBox="0 0 599 172" fill="none" xmlns="http://www.w3.org/2000/svg">
<path d="M10.002 123.21C46.5437 196.338 309.768 153.626 326.733 86.5153C326.849 86.0537 290.707 80.4041 290.707 71.9679C290.707 59.4417 315.52 57.919 326.488 51.8992C335.73 46.826 329.877 9.99964 341.772 10C353.656 10.0004 354.115 37.9109 366.554 43.8822C376.713 48.7591 400.8 34.0838 405.247 43.8823C409.695 53.6809 391.293 64.1586 387.457 67.0424C362.218 86.019 403.024 86.5153 398.131 108.909C399.453 114.917 360.772 93.7931 355.435 95.3613M355.435 95.3613C346.985 97.8443 334.222 117.149 328.767 123.21C321.197 131.623 357.353 84.1964 355.435 95.3613ZM355.435 95.3613C352.278 113.74 384.904 147.117 400.933 152.758C440.323 166.622 483.769 138.52 477.066 96.0134C476.333 91.3672 467.3 90.2722 466.862 95.3613C465.273 113.834 510.587 101.397 517.552 97.8443C546.767 82.945 570.372 54.9964 588.042 27.8572" stroke="#FAB822" stroke-width="20" stroke-linecap="round"/>
</svg>
